<svg width="30" height="30" viewBox="0 0 30 30" fill="none" xmlns="http://www.w3.org/2000/svg">
<path d="M7.5 15C10.625 15 12.5 13.25 12.5 10.625C12.5 8 10.625 6.25 7.5 6.25C4.375 6.25 2.5 6.25 2.5 6.25V15H7.5Z" stroke="white" stroke-width="4" stroke-linecap="round" stroke-linejoin="round"/>
<path d="M8.1445 25C11.5855 25 13.75 23.125 13.75 20C13.75 16.875 11.5855 15 8.1445 15H2.5V25H8.1445Z" stroke="white" stroke-width="4" stroke-linecap="round" stroke-linejoin="round"/>
<path d="M18.125 19.375H27.5C27.5 16.875 26.25 13.75 22.5 13.75C19.375 13.75 17.5 16.25 17.5 19.375C17.5 22.5 19.375 25 22.5 25C25.625 25 26.875 23.125 26.875 23.125" stroke="white" stroke-width="4" stroke-linecap="round" stroke-linejoin="round"/>
<path d="M26.25 9.375H18.75" stroke="white" stroke-width="4" stroke-linecap="round" stroke-linejoin="round"/>
</svg>
