<svg width="156" height="28" viewBox="0 0 156 28" fill="none" xmlns="http://www.w3.org/2000/svg">
<path d="M0.149148 27V2.27273H9.90483C11.7803 2.27273 13.3781 2.63092 14.6982 3.3473C16.0182 4.05563 17.0244 5.04167 17.7166 6.3054C18.4169 7.56108 18.767 9.00994 18.767 10.652C18.767 12.294 18.4129 13.7429 17.7045 14.9986C16.9962 16.2543 15.9699 17.2322 14.6257 17.9325C13.2895 18.6328 11.6716 18.983 9.77202 18.983H3.55398V14.7933H8.92685C9.933 14.7933 10.7621 14.6203 11.4141 14.2741C12.0741 13.92 12.5651 13.433 12.8871 12.8132C13.2171 12.1854 13.3821 11.465 13.3821 10.652C13.3821 9.83096 13.2171 9.11458 12.8871 8.50284C12.5651 7.88305 12.0741 7.40412 11.4141 7.06605C10.754 6.71993 9.9169 6.54688 8.9027 6.54688H5.37713V27H0.149148ZM30.8267 27.3622C28.9512 27.3622 27.3293 26.9638 25.9609 26.1669C24.6006 25.362 23.5501 24.2431 22.8096 22.8104C22.0691 21.3696 21.6988 19.6993 21.6988 17.7997C21.6988 15.884 22.0691 14.2098 22.8096 12.777C23.5501 11.3362 24.6006 10.2173 25.9609 9.42045C27.3293 8.61553 28.9512 8.21307 30.8267 8.21307C32.7021 8.21307 34.32 8.61553 35.6804 9.42045C37.0487 10.2173 38.1032 11.3362 38.8437 12.777C39.5842 14.2098 39.9545 15.884 39.9545 17.7997C39.9545 19.6993 39.5842 21.3696 38.8437 22.8104C38.1032 24.2431 37.0487 25.362 35.6804 26.1669C34.32 26.9638 32.7021 27.3622 30.8267 27.3622ZM30.8508 23.3778C31.704 23.3778 32.4164 23.1364 32.9879 22.6534C33.5594 22.1624 33.99 21.4943 34.2798 20.6491C34.5776 19.804 34.7265 18.8421 34.7265 17.7635C34.7265 16.6849 34.5776 15.723 34.2798 14.8778C33.99 14.0327 33.5594 13.3646 32.9879 12.8736C32.4164 12.3826 31.704 12.1371 30.8508 12.1371C29.9895 12.1371 29.2651 12.3826 28.6775 12.8736C28.098 13.3646 27.6593 14.0327 27.3615 14.8778C27.0717 15.723 26.9268 16.6849 26.9268 17.7635C26.9268 18.8421 27.0717 19.804 27.3615 20.6491C27.6593 21.4943 28.098 22.1624 28.6775 22.6534C29.2651 23.1364 29.9895 23.3778 30.8508 23.3778ZM43.979 27V8.45454H48.9655V11.6903H49.1587C49.4967 10.5393 50.0642 9.66998 50.8611 9.08239C51.6579 8.48674 52.5756 8.18892 53.6139 8.18892C53.8715 8.18892 54.1492 8.20502 54.447 8.23721C54.7448 8.26941 55.0064 8.31368 55.2318 8.37003V12.9339C54.9903 12.8615 54.6563 12.7971 54.2297 12.7408C53.8031 12.6844 53.4127 12.6562 53.0585 12.6562C52.3019 12.6562 51.6257 12.8213 51.0301 13.1513C50.4425 13.4732 49.9756 13.924 49.6295 14.5036C49.2915 15.0831 49.1224 15.7512 49.1224 16.5078V27H43.979ZM69.3651 8.45454V12.3182H58.1968V8.45454H69.3651ZM60.7323 4.01136H65.8758V21.3011C65.8758 21.776 65.9482 22.1463 66.0931 22.4119C66.238 22.6695 66.4392 22.8506 66.6968 22.9553C66.9624 23.0599 67.2683 23.1122 67.6144 23.1122C67.8559 23.1122 68.0974 23.0921 68.3388 23.0518C68.5803 23.0036 68.7654 22.9673 68.8942 22.9432L69.7032 26.7706C69.4456 26.8511 69.0834 26.9437 68.6165 27.0483C68.1497 27.161 67.5822 27.2294 66.9141 27.2536C65.6745 27.3018 64.5879 27.1368 63.6542 26.7585C62.7285 26.3802 62.0081 25.7926 61.4929 24.9957C60.9778 24.1989 60.7242 23.1927 60.7323 21.9773V4.01136Z" fill="#F22225"/>
<path d="M83.3686 8.45454V12.3182H71.9226V8.45454H83.3686ZM74.5426 27V7.11435C74.5426 5.77012 74.8042 4.6553 75.3274 3.76988C75.8587 2.88447 76.5831 2.22041 77.5007 1.7777C78.4183 1.33499 79.4607 1.11363 80.6278 1.11363C81.4167 1.11363 82.1371 1.174 82.7891 1.29474C83.4491 1.41548 83.9401 1.52415 84.2621 1.62074L83.3445 5.48438C83.1432 5.41998 82.8937 5.35961 82.5959 5.30327C82.3061 5.24692 82.0083 5.21875 81.7024 5.21875C80.9458 5.21875 80.4186 5.39583 80.1207 5.75C79.8229 6.09612 79.674 6.5831 79.674 7.21094V27H74.5426ZM94.906 27.3622C93.0306 27.3622 91.4086 26.9638 90.0403 26.1669C88.6799 25.362 87.6295 24.2431 86.889 22.8104C86.1485 21.3696 85.7782 19.6993 85.7782 17.7997C85.7782 15.884 86.1485 14.2098 86.889 12.777C87.6295 11.3362 88.6799 10.2173 90.0403 9.42045C91.4086 8.61553 93.0306 8.21307 94.906 8.21307C96.7815 8.21307 98.3994 8.61553 99.7597 9.42045C101.128 10.2173 102.183 11.3362 102.923 12.777C103.664 14.2098 104.034 15.884 104.034 17.7997C104.034 19.6993 103.664 21.3696 102.923 22.8104C102.183 24.2431 101.128 25.362 99.7597 26.1669C98.3994 26.9638 96.7815 27.3622 94.906 27.3622ZM94.9302 23.3778C95.7834 23.3778 96.4958 23.1364 97.0673 22.6534C97.6388 22.1624 98.0694 21.4943 98.3592 20.6491C98.657 19.804 98.8059 18.8421 98.8059 17.7635C98.8059 16.6849 98.657 15.723 98.3592 14.8778C98.0694 14.0327 97.6388 13.3646 97.0673 12.8736C96.4958 12.3826 95.7834 12.1371 94.9302 12.1371C94.0689 12.1371 93.3445 12.3826 92.7569 12.8736C92.1773 13.3646 91.7387 14.0327 91.4408 14.8778C91.1511 15.723 91.0062 16.6849 91.0062 17.7635C91.0062 18.8421 91.1511 19.804 91.4408 20.6491C91.7387 21.4943 92.1773 22.1624 92.7569 22.6534C93.3445 23.1364 94.0689 23.3778 94.9302 23.3778ZM113.202 2.27273V27H108.058V2.27273H113.202ZM118.002 27V8.45454H123.145V27H118.002ZM120.586 6.06392C119.821 6.06392 119.165 5.81037 118.618 5.30327C118.078 4.78811 117.809 4.17235 117.809 3.45596C117.809 2.74763 118.078 2.13991 118.618 1.63281C119.165 1.11766 119.821 0.860084 120.586 0.860084C121.35 0.860084 122.002 1.11766 122.542 1.63281C123.089 2.13991 123.363 2.74763 123.363 3.45596C123.363 4.17235 123.089 4.78811 122.542 5.30327C122.002 5.81037 121.35 6.06392 120.586 6.06392ZM136.325 27.3622C134.449 27.3622 132.828 26.9638 131.459 26.1669C130.099 25.362 129.048 24.2431 128.308 22.8104C127.567 21.3696 127.197 19.6993 127.197 17.7997C127.197 15.884 127.567 14.2098 128.308 12.777C129.048 11.3362 130.099 10.2173 131.459 9.42045C132.828 8.61553 134.449 8.21307 136.325 8.21307C138.2 8.21307 139.818 8.61553 141.179 9.42045C142.547 10.2173 143.601 11.3362 144.342 12.777C145.083 14.2098 145.453 15.884 145.453 17.7997C145.453 19.6993 145.083 21.3696 144.342 22.8104C143.601 24.2431 142.547 25.362 141.179 26.1669C139.818 26.9638 138.2 27.3622 136.325 27.3622ZM136.349 23.3778C137.202 23.3778 137.915 23.1364 138.486 22.6534C139.058 22.1624 139.488 21.4943 139.778 20.6491C140.076 19.804 140.225 18.8421 140.225 17.7635C140.225 16.6849 140.076 15.723 139.778 14.8778C139.488 14.0327 139.058 13.3646 138.486 12.8736C137.915 12.3826 137.202 12.1371 136.349 12.1371C135.488 12.1371 134.763 12.3826 134.176 12.8736C133.596 13.3646 133.158 14.0327 132.86 14.8778C132.57 15.723 132.425 16.6849 132.425 17.7635C132.425 18.8421 132.57 19.804 132.86 20.6491C133.158 21.4943 133.596 22.1624 134.176 22.6534C134.763 23.1364 135.488 23.3778 136.349 23.3778ZM152.484 27.3139C151.687 27.3139 151.003 27.0322 150.431 26.4688C149.868 25.8973 149.586 25.2131 149.586 24.4162C149.586 23.6274 149.868 22.9512 150.431 22.3878C151.003 21.8243 151.687 21.5426 152.484 21.5426C153.256 21.5426 153.932 21.8243 154.512 22.3878C155.092 22.9512 155.381 23.6274 155.381 24.4162C155.381 24.9474 155.245 25.4344 154.971 25.8771C154.705 26.3118 154.355 26.6619 153.92 26.9276C153.486 27.1851 153.007 27.3139 152.484 27.3139Z" fill="white"/>
</svg>
