<svg width="138" height="25" viewBox="0 0 138 25" fill="none" xmlns="http://www.w3.org/2000/svg">
<path d="M0.896307 24V2.18182H9.50426C11.1591 2.18182 12.5689 2.49787 13.7337 3.12997C14.8984 3.75497 15.7862 4.625 16.397 5.74006C17.0149 6.84801 17.3239 8.12642 17.3239 9.57528C17.3239 11.0241 17.0114 12.3026 16.3864 13.4105C15.7614 14.5185 14.8558 15.3814 13.6697 15.9993C12.4908 16.6172 11.0632 16.9261 9.38707 16.9261H3.90057V13.2294H8.64134C9.52912 13.2294 10.2607 13.0767 10.8359 12.7713C11.4183 12.4588 11.8516 12.0291 12.1357 11.4822C12.4268 10.9283 12.5724 10.2926 12.5724 9.57528C12.5724 8.85085 12.4268 8.21875 12.1357 7.67898C11.8516 7.1321 11.4183 6.70952 10.8359 6.41122C10.2536 6.10582 9.51491 5.95312 8.62003 5.95312H5.50923V24H0.896307ZM27.9647 24.3196C26.3099 24.3196 24.8788 23.968 23.6714 23.2649C22.4711 22.5547 21.5442 21.5675 20.8908 20.3033C20.2374 19.032 19.9107 17.5582 19.9107 15.8821C19.9107 14.1918 20.2374 12.7145 20.8908 11.4503C21.5442 10.179 22.4711 9.19176 23.6714 8.48864C24.8788 7.77841 26.3099 7.4233 27.9647 7.4233C29.6195 7.4233 31.0471 7.77841 32.2474 8.48864C33.4548 9.19176 34.3852 10.179 35.0386 11.4503C35.692 12.7145 36.0187 14.1918 36.0187 15.8821C36.0187 17.5582 35.692 19.032 35.0386 20.3033C34.3852 21.5675 33.4548 22.5547 32.2474 23.2649C31.0471 23.968 29.6195 24.3196 27.9647 24.3196ZM27.986 20.804C28.7389 20.804 29.3674 20.5909 29.8717 20.1648C30.3759 19.7315 30.7559 19.142 31.0116 18.3963C31.2744 17.6506 31.4058 16.8018 31.4058 15.8501C31.4058 14.8984 31.2744 14.0497 31.0116 13.304C30.7559 12.5582 30.3759 11.9687 29.8717 11.5355C29.3674 11.1023 28.7389 10.8857 27.986 10.8857C27.2261 10.8857 26.5869 11.1023 26.0684 11.5355C25.557 11.9687 25.17 12.5582 24.9072 13.304C24.6515 14.0497 24.5237 14.8984 24.5237 15.8501C24.5237 16.8018 24.6515 17.6506 24.9072 18.3963C25.17 19.142 25.557 19.7315 26.0684 20.1648C26.5869 20.5909 27.2261 20.804 27.986 20.804ZM39.5697 24V7.63636H43.9695V10.4915H44.14C44.4383 9.47585 44.939 8.70881 45.6421 8.19034C46.3452 7.66477 47.1549 7.40199 48.0711 7.40199C48.2984 7.40199 48.5434 7.41619 48.8062 7.4446C49.069 7.47301 49.2998 7.51207 49.4987 7.56179V11.5888C49.2856 11.5249 48.9908 11.468 48.6144 11.4183C48.238 11.3686 47.8935 11.3438 47.581 11.3438C46.9134 11.3438 46.3168 11.4893 45.7913 11.7805C45.2728 12.0646 44.8609 12.4624 44.5555 12.9737C44.2572 13.4851 44.108 14.0746 44.108 14.7422V24H39.5697ZM61.9692 7.63636V11.0455H52.1148V7.63636H61.9692ZM54.352 3.71591H58.8904V18.9716C58.8904 19.3906 58.9543 19.7173 59.0821 19.9517C59.21 20.179 59.3875 20.3388 59.6148 20.4311C59.8492 20.5234 60.1191 20.5696 60.4245 20.5696C60.6375 20.5696 60.8506 20.5518 61.0637 20.5163C61.2767 20.4737 61.4401 20.4418 61.5537 20.4205L62.2675 23.7976C62.0402 23.8686 61.7206 23.9503 61.3087 24.0426C60.8968 24.142 60.3961 24.2024 59.8066 24.2237C58.7128 24.2663 57.754 24.1207 56.9301 23.7869C56.1134 23.4531 55.4777 22.9347 55.0232 22.2315C54.5686 21.5284 54.3449 20.6406 54.352 19.5682V3.71591Z" fill="#F22225"/>
<path d="M74.3253 7.63636V11.0455H64.2258V7.63636H74.3253ZM66.5376 24V6.45383C66.5376 5.26775 66.7684 4.28409 67.2301 3.50284C67.6988 2.72159 68.338 2.13565 69.1477 1.74503C69.9574 1.3544 70.8771 1.15909 71.9069 1.15909C72.6029 1.15909 73.2386 1.21236 73.8139 1.31889C74.3963 1.42543 74.8295 1.52131 75.1136 1.60653L74.3039 5.01562C74.1264 4.95881 73.9062 4.90554 73.6434 4.85582C73.3877 4.80611 73.125 4.78125 72.8551 4.78125C72.1875 4.78125 71.7223 4.9375 71.4595 5.25C71.1967 5.5554 71.0653 5.98509 71.0653 6.53906V24H66.5376ZM84.5053 24.3196C82.8505 24.3196 81.4194 23.968 80.212 23.2649C79.0117 22.5547 78.0849 21.5675 77.4315 20.3033C76.7781 19.032 76.4513 17.5582 76.4513 15.8821C76.4513 14.1918 76.7781 12.7145 77.4315 11.4503C78.0849 10.179 79.0117 9.19176 80.212 8.48864C81.4194 7.77841 82.8505 7.4233 84.5053 7.4233C86.1602 7.4233 87.5877 7.77841 88.788 8.48864C89.9954 9.19176 90.9258 10.179 91.5792 11.4503C92.2326 12.7145 92.5593 14.1918 92.5593 15.8821C92.5593 17.5582 92.2326 19.032 91.5792 20.3033C90.9258 21.5675 89.9954 22.5547 88.788 23.2649C87.5877 23.968 86.1602 24.3196 84.5053 24.3196ZM84.5266 20.804C85.2795 20.804 85.908 20.5909 86.4123 20.1648C86.9165 19.7315 87.2965 19.142 87.5522 18.3963C87.815 17.6506 87.9464 16.8018 87.9464 15.8501C87.9464 14.8984 87.815 14.0497 87.5522 13.304C87.2965 12.5582 86.9165 11.9687 86.4123 11.5355C85.908 11.1023 85.2795 10.8857 84.5266 10.8857C83.7667 10.8857 83.1275 11.1023 82.609 11.5355C82.0977 11.9687 81.7106 12.5582 81.4478 13.304C81.1921 14.0497 81.0643 14.8984 81.0643 15.8501C81.0643 16.8018 81.1921 17.6506 81.4478 18.3963C81.7106 19.142 82.0977 19.7315 82.609 20.1648C83.1275 20.5909 83.7667 20.804 84.5266 20.804ZM100.649 2.18182V24H96.1103V2.18182H100.649ZM104.884 24V7.63636H109.422V24H104.884ZM107.164 5.52699C106.489 5.52699 105.91 5.30327 105.427 4.85582C104.952 4.40128 104.714 3.85795 104.714 3.22585C104.714 2.60085 104.952 2.06463 105.427 1.61719C105.91 1.16264 106.489 0.935368 107.164 0.935368C107.839 0.935368 108.414 1.16264 108.89 1.61719C109.373 2.06463 109.614 2.60085 109.614 3.22585C109.614 3.85795 109.373 4.40128 108.89 4.85582C108.414 5.30327 107.839 5.52699 107.164 5.52699ZM121.051 24.3196C119.397 24.3196 117.965 23.968 116.758 23.2649C115.558 22.5547 114.631 21.5675 113.978 20.3033C113.324 19.032 112.997 17.5582 112.997 15.8821C112.997 14.1918 113.324 12.7145 113.978 11.4503C114.631 10.179 115.558 9.19176 116.758 8.48864C117.965 7.77841 119.397 7.4233 121.051 7.4233C122.706 7.4233 124.134 7.77841 125.334 8.48864C126.541 9.19176 127.472 10.179 128.125 11.4503C128.779 12.7145 129.105 14.1918 129.105 15.8821C129.105 17.5582 128.779 19.032 128.125 20.3033C127.472 21.5675 126.541 22.5547 125.334 23.2649C124.134 23.968 122.706 24.3196 121.051 24.3196ZM121.073 20.804C121.826 20.804 122.454 20.5909 122.958 20.1648C123.463 19.7315 123.843 19.142 124.098 18.3963C124.361 17.6506 124.492 16.8018 124.492 15.8501C124.492 14.8984 124.361 14.0497 124.098 13.304C123.843 12.5582 123.463 11.9687 122.958 11.5355C122.454 11.1023 121.826 10.8857 121.073 10.8857C120.313 10.8857 119.674 11.1023 119.155 11.5355C118.644 11.9687 118.257 12.5582 117.994 13.304C117.738 14.0497 117.61 14.8984 117.61 15.8501C117.61 16.8018 117.738 17.6506 117.994 18.3963C118.257 19.142 118.644 19.7315 119.155 20.1648C119.674 20.5909 120.313 20.804 121.073 20.804ZM135.309 24.277C134.606 24.277 134.002 24.0284 133.498 23.5312C133.001 23.027 132.752 22.4233 132.752 21.7202C132.752 21.0241 133.001 20.4276 133.498 19.9304C134.002 19.4332 134.606 19.1847 135.309 19.1847C135.991 19.1847 136.587 19.4332 137.099 19.9304C137.61 20.4276 137.866 21.0241 137.866 21.7202C137.866 22.1889 137.745 22.6186 137.504 23.0092C137.269 23.3928 136.96 23.7017 136.577 23.9361C136.193 24.1634 135.771 24.277 135.309 24.277Z" fill="#0F172A"/>
</svg>
