<svg width="32" height="32" viewBox="0 0 32 32" fill="none" xmlns="http://www.w3.org/2000/svg">
<path fill-rule="evenodd" clip-rule="evenodd" d="M9.57525 0.510248C11.237 0.433748 11.7668 0.416748 15.9998 0.416748C20.2328 0.416748 20.7627 0.435165 22.423 0.510248C24.0833 0.585331 25.2167 0.850248 26.2083 1.23416C27.2468 1.62658 28.1888 2.24 28.968 3.03333C29.7613 3.81108 30.3733 4.75175 30.7643 5.79158C31.1497 6.78325 31.4132 7.91658 31.4897 9.57408C31.5662 11.2387 31.5832 11.7685 31.5832 16.0001C31.5832 20.2331 31.5648 20.7629 31.4897 22.4247C31.4146 24.0822 31.1497 25.2155 30.7643 26.2072C30.3733 27.2471 29.7603 28.1894 28.968 28.9682C28.1888 29.7616 27.2468 30.3736 26.2083 30.7646C25.2167 31.1499 24.0833 31.4134 22.4258 31.4899C20.7627 31.5664 20.2328 31.5834 15.9998 31.5834C11.7668 31.5834 11.237 31.565 9.57525 31.4899C7.91775 31.4148 6.78442 31.1499 5.79275 30.7646C4.75281 30.3735 3.81058 29.7605 3.03167 28.9682C2.23888 28.19 1.62537 27.2483 1.23392 26.2086C0.850004 25.2169 0.586504 24.0836 0.510004 22.4261C0.433504 20.7615 0.416504 20.2317 0.416504 16.0001C0.416504 11.7671 0.434921 11.2372 0.510004 9.57691C0.585087 7.91658 0.850004 6.78325 1.23392 5.79158C1.62594 4.75186 2.23992 3.81011 3.03309 3.03191C3.81089 2.23929 4.75217 1.62579 5.79134 1.23416C6.783 0.850248 7.91634 0.586748 9.57384 0.510248H9.57525ZM22.2969 3.31525C20.6536 3.24016 20.1606 3.22458 15.9998 3.22458C11.8391 3.22458 11.3461 3.24016 9.70275 3.31525C8.18267 3.38466 7.35817 3.63825 6.8085 3.85216C6.08175 4.1355 5.56184 4.47125 5.01642 5.01666C4.4994 5.51965 4.10151 6.13198 3.85192 6.80875C3.638 7.35841 3.38442 8.18291 3.315 9.703C3.23992 11.3463 3.22434 11.8393 3.22434 16.0001C3.22434 20.1608 3.23992 20.6538 3.315 22.2972C3.38442 23.8172 3.638 24.6417 3.85192 25.1914C4.10125 25.8672 4.49934 26.4806 5.01642 26.9835C5.51934 27.5006 6.13275 27.8987 6.8085 28.148C7.35817 28.3619 8.18267 28.6155 9.70275 28.6849C11.3461 28.76 11.8377 28.7756 15.9998 28.7756C20.162 28.7756 20.6536 28.76 22.2969 28.6849C23.817 28.6155 24.6415 28.3619 25.1912 28.148C25.9179 27.8647 26.4378 27.5289 26.9833 26.9835C27.5003 26.4806 27.8984 25.8672 28.1478 25.1914C28.3617 24.6417 28.6153 23.8172 28.6847 22.2972C28.7598 20.6538 28.7753 20.1608 28.7753 16.0001C28.7753 11.8393 28.7598 11.3463 28.6847 9.703C28.6153 8.18291 28.3617 7.35841 28.1478 6.80875C27.8644 6.082 27.5287 5.56208 26.9833 5.01666C26.4802 4.49968 25.8679 4.1018 25.1912 3.85216C24.6415 3.63825 23.817 3.38466 22.2969 3.31525ZM14.0094 20.804C15.121 21.2667 16.3588 21.3292 17.5113 20.9807C18.6638 20.6322 19.6596 19.8944 20.3286 18.8933C20.9976 17.8921 21.2982 16.6898 21.1792 15.4916C21.0602 14.2935 20.5289 13.1738 19.6761 12.3238C19.1324 11.7805 18.4751 11.3645 17.7513 11.1057C17.0276 10.8469 16.2554 10.7518 15.4905 10.8273C14.7256 10.9027 13.987 11.1468 13.3277 11.542C12.6685 11.9372 12.1051 12.4736 11.678 13.1127C11.251 13.7518 10.9709 14.4776 10.8581 15.2379C10.7452 15.9981 10.8023 16.774 11.0253 17.5096C11.2482 18.2451 11.6315 18.9221 12.1475 19.4918C12.6635 20.0614 13.2994 20.5096 14.0094 20.804ZM10.336 10.3362C11.0798 9.59246 11.9628 9.00246 12.9346 8.59993C13.9064 8.19739 14.948 7.99021 15.9998 7.99021C17.0517 7.99021 18.0933 8.19739 19.0651 8.59993C20.0369 9.00246 20.9199 9.59246 21.6637 10.3362C22.4075 11.08 22.9975 11.963 23.4 12.9348C23.8025 13.9066 24.0097 14.9482 24.0097 16.0001C24.0097 17.052 23.8025 18.0935 23.4 19.0653C22.9975 20.0371 22.4075 20.9201 21.6637 21.6639C20.1615 23.1661 18.1242 24.01 15.9998 24.01C13.8755 24.01 11.8381 23.1661 10.336 21.6639C8.83386 20.1618 7.98997 18.1244 7.98997 16.0001C7.98997 13.8757 8.83386 11.8384 10.336 10.3362ZM25.7862 9.18308C25.9705 9.00921 26.118 8.80013 26.2201 8.56821C26.3222 8.33629 26.3767 8.08625 26.3803 7.8329C26.384 7.57954 26.3369 7.32802 26.2416 7.09323C26.1463 6.85843 26.0049 6.64514 25.8258 6.46597C25.6466 6.2868 25.4333 6.1454 25.1985 6.05015C24.9637 5.95489 24.7122 5.90771 24.4589 5.91141C24.2055 5.9151 23.9555 5.96959 23.7235 6.07165C23.4916 6.17371 23.2825 6.32127 23.1087 6.50558C22.7705 6.86404 22.5854 7.34017 22.5926 7.8329C22.5998 8.32563 22.7987 8.79616 23.1471 9.14461C23.4956 9.49306 23.9661 9.69199 24.4589 9.69917C24.9516 9.70635 25.4277 9.52122 25.7862 9.18308Z" fill="white"/>
</svg>
